<svg xmlns="http://www.w3.org/2000/svg" xmlns:xlink="http://www.w3.org/1999/xlink" viewBox="0 0 163.33 163.33"><defs><style>.Graphic-Style{fill:url(#radial-gradient);}.cls-1{fill:#fff;}</style><radialGradient id="radial-gradient" cx="47.84" cy="175.97" r="216.43" gradientUnits="userSpaceOnUse"><stop offset="0.1" stop-color="#ffd879"></stop><stop offset="0.15" stop-color="#fccb76"></stop><stop offset="0.26" stop-color="#f5aa6c"></stop><stop offset="0.4" stop-color="#e9755e"></stop><stop offset="0.45" stop-color="#e45f58"></stop><stop offset="0.68" stop-color="#d22a9c"></stop><stop offset="1" stop-color="#6968df"></stop></radialGradient></defs><title>instagram</title><g id="Layer_2" data-name="Layer 2"><g id="Layer_1-2" data-name="Layer 1"><rect class="Graphic-Style" width="163.33" height="163.33" rx="21.04"></rect><path class="cls-1" d="M81.66,135.3c-9.48,0-19-.29-28.57-.87l-.34,0a28.75,28.75,0,0,1-24.17-23.92l0-.29a408.07,408.07,0,0,1,0-57l0-.29A28.76,28.76,0,0,1,52.75,28.93l.34,0a469.71,469.71,0,0,1,57.15,0l.34,0a28.76,28.76,0,0,1,24.16,23.93l0,.29a405,405,0,0,1,0,57l0,.29a28.75,28.75,0,0,1-24.16,23.92l-.34,0C100.62,135,91.14,135.3,81.66,135.3Zm-27.93-8.52a464.92,464.92,0,0,0,55.87,0,21.05,21.05,0,0,0,17.53-17.29,400.6,400.6,0,0,0,0-55.65A21,21,0,0,0,109.6,36.55a460.82,460.82,0,0,0-55.87,0A21,21,0,0,0,36.2,53.84a397.53,397.53,0,0,0,0,55.65A21,21,0,0,0,53.73,126.78Z"></path><path class="cls-1" d="M81.66,109.38a27.72,27.72,0,1,1,27.72-27.72A27.75,27.75,0,0,1,81.66,109.38Zm0-47.76a20,20,0,1,0,20,20A20.06,20.06,0,0,0,81.66,61.62Z"></path><path class="cls-1" d="M117.51,52.38a6.08,6.08,0,1,1-6.08-6.08A6.08,6.08,0,0,1,117.51,52.38Z"></path></g></g></svg>