<svg xmlns="http://www.w3.org/2000/svg" viewBox="0 0 163.33 163.33"><defs><style>.cls-1{fill:#e42b33;}.cls-2{fill:#fff;}</style></defs><title>pinterest</title><g id="Layer_2" data-name="Layer 2"><g id="Layer_1-2" data-name="Layer 1"><rect class="cls-1" width="163.33" height="163.33" rx="21.04"></rect><path class="cls-2" d="M56.23,134.57V118.38a4.13,4.13,0,0,1,.12-1l9.42-39.68s-5-9.54-2-16.06c2.58-5.58,13.57-13.35,18.92-5.49a10,10,0,0,1,1.08,8.74c-5.19,15.78-5.27,21.18-5.27,21.34,0,3.06,5.27,6.54,7.73,7.2C91,94.75,96.63,93,100.42,90c5.11-4.17,7.83-10.68,9-17.18,1.35-7.84.53-16.34-3.87-23C101,43,92.93,38.81,84.76,38.36A33.69,33.69,0,0,0,62,46.14,31,31,0,0,0,51.52,61.48,22.4,22.4,0,0,0,54,79.65a9.56,9.56,0,0,1,1.6,3c.45,2-1.56,8-3.43,8.3-1.25.24-4.84-2.47-6-3.19a16.61,16.61,0,0,1-7.36-9.37,35.42,35.42,0,0,1,1.39-26.54c5-10.67,15-18.6,26.3-22s23.6-2.58,34.72,1.31c7,2.46,13.77,6.23,18.4,12,5.07,6.36,7.19,14.75,6.84,22.87C125.88,79.29,120,93,109,100.78a33.18,33.18,0,0,1-16.4,5.75c-8.87.75-16.79-5.22-16.79-5.22L68,123.17a4.24,4.24,0,0,1-.77,1.33L58.1,135.26A1.06,1.06,0,0,1,56.23,134.57Z"></path></g></g></svg>